<svg width="162" height="143" viewBox="0 0 162 143" fill="none" xmlns="http://www.w3.org/2000/svg">
<rect width="162" height="143" fill="none"/>
<path d="M60.9167 54C61.9554 54 62.9517 54.3913 63.6862 55.0879C64.4207 55.7845 64.8333 56.7292 64.8333 57.7143V102.286C64.8333 103.271 64.4207 104.216 63.6862 104.912C62.9517 105.609 61.9554 106 60.9167 106C59.8779 106 58.8817 105.609 58.1472 104.912C57.4126 104.216 57 103.271 57 102.286V57.7143C57 56.7292 57.4126 55.7845 58.1472 55.0879C58.8817 54.3913 59.8779 54 60.9167 54ZM80.5 54C81.5388 54 82.535 54.3913 83.2695 55.0879C84.004 55.7845 84.4167 56.7292 84.4167 57.7143V102.286C84.4167 103.271 84.004 104.216 83.2695 104.912C82.535 105.609 81.5388 106 80.5 106C79.4612 106 78.465 105.609 77.7305 104.912C76.996 104.216 76.5833 103.271 76.5833 102.286V57.7143C76.5833 56.7292 76.996 55.7845 77.7305 55.0879C78.465 54.3913 79.4612 54 80.5 54ZM104 57.7143C104 56.7292 103.587 55.7845 102.853 55.0879C102.118 54.3913 101.122 54 100.083 54C99.0446 54 98.0483 54.3913 97.3138 55.0879C96.5793 55.7845 96.1667 56.7292 96.1667 57.7143V102.286C96.1667 103.271 96.5793 104.216 97.3138 104.912C98.0483 105.609 99.0446 106 100.083 106C101.122 106 102.118 105.609 102.853 104.912C103.587 104.216 104 103.271 104 102.286V57.7143Z" fill="#2563FF"/>
<path fill-rule="evenodd" clip-rule="evenodd" d="M135 40.2C135 42.0742 134.117 43.8716 132.544 45.1969C130.972 46.5221 128.839 47.2667 126.615 47.2667H122.423V110.867C122.423 114.615 120.656 118.21 117.511 120.86C114.367 123.511 110.101 125 105.654 125H55.3462C50.8987 125 46.6334 123.511 43.4885 120.86C40.3437 118.21 38.5769 114.615 38.5769 110.867V47.2667H34.3846C32.1609 47.2667 30.0282 46.5221 28.4558 45.1969C26.8834 43.8716 26 42.0742 26 40.2V33.1333C26 31.2591 26.8834 29.4617 28.4558 28.1364C30.0282 26.8112 32.1609 26.0667 34.3846 26.0667H63.7308C63.7308 24.1925 64.6141 22.395 66.1866 21.0698C67.759 19.7445 69.8916 19 72.1154 19H88.8846C91.1084 19 93.241 19.7445 94.8134 21.0698C96.3858 22.395 97.2692 24.1925 97.2692 26.0667H126.615C128.839 26.0667 130.972 26.8112 132.544 28.1364C134.117 29.4617 135 31.2591 135 33.1333V40.2ZM47.9509 47.2667L46.9615 47.6836V110.867C46.9615 112.741 47.8449 114.538 49.4173 115.864C50.9898 117.189 53.1224 117.933 55.3462 117.933H105.654C107.878 117.933 110.01 117.189 111.583 115.864C113.155 114.538 114.038 112.741 114.038 110.867V47.6836L113.049 47.2667H47.9509ZM34.3846 40.2V33.1333H126.615V40.2H34.3846Z" fill="#2563FF"/>
</svg>
