<svg width="39" height="19" viewBox="0 0 39 19" fill="none" xmlns="http://www.w3.org/2000/svg">
<path d="M0.90625 17.4688C0.90625 17.0626 1.1861 16.6732 1.68425 16.386C2.18239 16.0988 2.85802 15.9375 3.5625 15.9375L35.4375 15.9375C36.142 15.9375 36.8176 16.0988 37.3158 16.386C37.8139 16.6732 38.0938 17.0626 38.0938 17.4688C38.0938 17.8749 37.8139 18.2643 37.3158 18.5515C36.8176 18.8387 36.142 19 35.4375 19L3.5625 19C2.85802 19 2.18239 18.8387 1.68425 18.5515C1.1861 18.2643 0.90625 17.8749 0.90625 17.4688ZM0.90625 9.8125C0.90625 9.40639 1.1861 9.01691 1.68425 8.72974C2.18239 8.44258 2.85802 8.28125 3.5625 8.28125L35.4375 8.28125C36.142 8.28125 36.8176 8.44258 37.3158 8.72974C37.8139 9.01691 38.0938 9.40639 38.0938 9.8125C38.0938 10.2186 37.8139 10.6081 37.3158 10.8953C36.8176 11.1824 36.142 11.3438 35.4375 11.3438L3.5625 11.3438C2.85802 11.3438 2.18239 11.1824 1.68425 10.8953C1.1861 10.6081 0.90625 10.2186 0.90625 9.8125ZM3.5625 0.625C2.85802 0.625 2.18239 0.786327 1.68425 1.07349C1.1861 1.36066 0.90625 1.75014 0.90625 2.15625C0.90625 2.56236 1.1861 2.95184 1.68425 3.23901C2.18239 3.52617 2.85802 3.6875 3.5625 3.6875L35.4375 3.6875C36.142 3.6875 36.8176 3.52617 37.3158 3.23901C37.8139 2.95184 38.0938 2.56236 38.0938 2.15625C38.0938 1.75014 37.8139 1.36066 37.3158 1.07349C36.8176 0.786327 36.142 0.625 35.4375 0.625L3.5625 0.625Z" fill="black"/>
</svg>
